# xmcd CD database file
#
# Track frame offsets:
#	150
#	20416
#	25480
#
# Disc length: 569 seconds
#
# Revision: 0
# Processed by: cddbd v1.5.1PL0 Copyright (c) Steve Scherf et al.
# Submitted via: CDex 1.51
#
DISCID=1c023703
DTITLE=HOME MADE 家族 - ON THE RUN
DYEAR=1900
DGENRE=Japanese Pop
TTITLE0=ON THE RUN
TTITLE1=LIVE ON DIRECT pt.2
TTITLE2=アドレナリンF
EXTD=
EXTT0=
EXTT1=
EXTT2=
PLAYORDER=
